<?xml version="1.0" encoding="UTF-8"?>
<svg id="Layer_2" data-name="Layer 2" xmlns="http://www.w3.org/2000/svg" viewBox="0 0 417.16 410.77">
  <defs>
    <style>
      .cls-1 {
        fill: #010101;
      }

      .cls-1, .cls-2, .cls-3, .cls-4, .cls-5 {
        stroke-width: 0px;
      }

      .cls-3 {
        fill: #fff;
      }

      .cls-6 {
        fill: none;
        stroke: #000;
        stroke-miterlimit: 10;
        stroke-width: 23px;
      }

      .cls-4 {
        fill: #ee3024;
      }

      .cls-5 {
        fill: #b5b6b6;
      }
    </style>
  </defs>
  <g id="Layer_2-2" data-name="Layer 2">
    <g id="Layer_1-2" data-name="Layer 1">
      <ellipse class="cls-1" cx="208.58" cy="205.38" rx="208.58" ry="205.38"/>
      <path class="cls-3" d="m46.47,232.03s132.04-4.67,188.66-49.72c56.62-45.05,103.46-50.34,130.15-67.31,26.69-16.96,28.68,117.03,28.68,117.03,0,0-60.17,257.44-305.56,119.52-62.47-35.11-59-124.42-41.93-119.52Z"/>
      <polygon class="cls-4" points="31.87 242.49 46.47 232.03 51.56 258.98 74.44 279.46 86.59 287.03 78.79 301.74 81.52 320.8 88.4 351.55 51.99 306.84 28.4 265.24 31.87 242.49"/>
      <path class="cls-6" d="m394.69,200.77c8.54,67.45-55.83,173.58-148.47,186.83-72.31,10.35-153.3-13.96-183.99-65.36-8.39-14.04-27.16-37.18-31.26-51.15-20.38-69.4,85.16-26.39,166.94-68.91,187.19-97.32,180.09-133.2,196.78-1.42Z"/>
      <path class="cls-5" d="m119.64,291.79s111.66,20.84,168.29-38.94c17.09-18.04-63.17,38.94-168.29,38.94Z"/>
      <path class="cls-3" d="m124.12,132.16c-20.97,15.57-44.08,14.77-47.3,42.31-1.24,10.55,10.48,18.48,11.91,8.04,4.17-30.31,24.02-22.49,42.58-36.28,7.43-5.52.27-19.61-7.19-14.07Z"/>
      <path class="cls-3" d="m229.31,88.29c26.07,1.64,45.01-11.62,62.72,9.71,6.78,8.17,1.28,21.2-5.61,13.23-20.01-23.15-32.39-5.78-55.47-7.23-9.24-.58-10.9-16.3-1.64-15.72Z"/>
      <path class="cls-2" d="m88.46,282.99c-9.05-6.03-14.38-9.98-23.94-15.12-8.32-4.46-13.58-18.54-13.17-29.54.25-6.87-10.4-6.85-10.66,0-.49,13.2,2.88,29.34,13.09,35.67,9.4,5.83,15.13,10.46,24.67,15.9.11.06.15.2.09.31-6.01,11.11-4.21,20.83-1.1,31.63,1.93,6.69,11.97,4.07,10.4-2.71-2.43-10.48-4.8-18.92,2.53-28.86,1.8-2.44.3-5.81-1.91-7.29Z"/>
      <path class="cls-2" d="m288.79,240.05c-50.14,29.68-109.35,46.22-166.89,46.32-6.87.01-6.87,10.67,0,10.66,59.37-.1,120.55-17.16,172.27-47.77,5.91-3.5.55-12.71-5.38-9.2Z"/>
    </g>
  </g>
</svg>