<?xml version="1.0" encoding="UTF-8"?>
<svg id="Layer_2" data-name="Layer 2" xmlns="http://www.w3.org/2000/svg" viewBox="0 0 610.4 283.62">
  <defs>
    <style>
      .cls-1 {
        fill: #d3c9c9;
        stroke-width: 0px;
      }
    </style>
  </defs>
  <g id="Layer_1-2" data-name="Layer 1">
    <g>
      <path class="cls-1" d="m128.53,202.26v-90.6c-21.31,80.62-67.08,84.19-90.61,0v171.95h0c-20.94,0-37.92-16.41-37.92-36.65V84.12c0-7.89,2.45-15.11,8.71-20.26,52-42.73,56.84,21.52,74.51,52.48,17.21-28.18,30.63-98.41,74.51-52.48,5.57,5.83,8.71,12.37,8.71,20.26v118.14h-37.92Z"/>
      <path class="cls-1" d="m305.49,202.79l-133.72-.88V55.09h96.09c10.85,15.64-.74,36.65-20.22,36.65h-37.72v73.53l121,.88-25.44,36.65Zm-60.23-55.97h-27.79v-36.65h7.57c19.48,0,31.08,21.01,20.22,36.65h0Z"/>
      <path class="cls-1" d="m430.64,159.26c-8.64,0-17.27-4.47-25.91-13.43-6.59-6.83-13.51-16.39-20.73-28.68-5.03-8.5-9.97-17.07-14.84-25.72-5.03,8.5-10.05,17-15.07,25.49-7.54,12.9-14.37,22.46-20.49,28.68-8.8,9.11-17.51,13.66-26.14,13.66-8.01,0-14.96-2.85-20.84-8.54-5.89-5.69-8.83-12.41-8.83-20.15V12.44h0c21.07,0,38.15,16.51,38.15,36.88v53.72c6.91-11.68,13.9-23.45,20.96-35.28,10.83-15.78,21.59-23.67,32.27-23.67,12.4,0,25.12,11.08,38.15,33.23,4.87,8.65,9.81,17.23,14.84,25.72v-57.12h38.15v84.67c0,7.89-2.91,14.65-8.71,20.26-5.81,5.62-12.8,8.42-20.96,8.42Z"/>
      <path class="cls-1" d="m578.84,146.82h-107.16V43.93h37.92v66.24h57l-49.46-73.53h-94.65V0h100.06c10.68,0,19,4.55,24.97,13.66,7.07,9.87,14.21,19.65,21.43,29.36,11.15,15.33,20.33,28.99,27.56,40.97,9.26,15.33,13.9,26.1,13.9,32.32,0,8.19-3.14,15.33-9.42,21.4-6.28,6.07-13.66,9.11-22.14,9.11Z"/>
    </g>
  </g>
</svg>