<?xml version="1.0" encoding="UTF-8"?>
<svg id="Layer_2" data-name="Layer 2" xmlns="http://www.w3.org/2000/svg" viewBox="0 0 997.37 854.23">
  <defs>
    <style>
      .cls-1 {
        fill: #ff2110;
        stroke-width: 0px;
      }
    </style>
  </defs>
  <g id="Layer_2-2" data-name="Layer 2">
    <g>
      <path class="cls-1" d="m337.13,416.83v-245.87c-55.9,218.8-175.95,228.48-237.67,0v466.66c-54.93,0-99.46-44.53-99.46-99.46V96.21c0-21.41,6.43-41.02,22.86-54.98,136.39-115.96,149.08,58.4,195.44,142.41,45.13-76.49,80.35-267.08,195.44-142.42,14.62,15.83,22.85,33.58,22.85,54.98v320.62h-99.46Z"/>
      <path class="cls-1" d="m806.94,415.88h-344.44V17.42h252.05c28.47,42.44-1.95,99.46-53.05,99.46h-98.93v199.54h115.97c60.47,0,113.28,40.91,128.39,99.46m-151.69-149.5h-72.9v-99.46h19.85c51.1,0,81.51,57.02,53.05,99.46"/>
      <path class="cls-1" d="m520.49,759.51c-22.65,0-45.31-12.14-67.95-36.45-17.3-18.53-35.42-44.48-54.36-77.84-13.18-23.06-26.16-46.33-38.92-69.81-13.18,23.07-26.36,46.13-39.54,69.19-19.77,35.01-37.68,60.96-53.74,77.84-23.07,24.71-45.93,37.07-68.57,37.07-21.01,0-39.23-7.72-54.67-23.17-15.44-15.44-23.17-33.67-23.17-54.67v-320.62h0c55.27,0,100.08,44.81,100.08,100.08v145.79c18.12-31.71,36.45-63.63,54.98-95.75,28.42-42.83,56.62-64.25,84.63-64.25,32.53,0,65.89,30.07,100.08,90.2,12.76,23.48,25.73,46.75,38.92,69.81v-155.02h100.08v229.77c0,21.42-7.63,39.75-22.86,54.98-15.24,15.24-33.57,22.86-54.98,22.86"/>
      <path class="cls-1" d="m914.59,854.23h-281.08v-279.23h99.46v179.77h149.5l-129.73-199.54h-119.23v-99.46h133.44c28,0,49.83,12.36,65.48,37.07,18.53,26.78,37.27,53.34,56.22,79.69,29.24,41.61,53.33,78.67,72.28,111.2,24.29,41.6,36.45,70.84,36.45,87.72,0,22.24-8.24,41.6-24.71,58.07-16.48,16.48-35.83,24.71-58.07,24.71"/>
    </g>
  </g>
</svg>