<?xml version="1.0" encoding="UTF-8"?>
<svg id="Layer_2" data-name="Layer 2" xmlns="http://www.w3.org/2000/svg" viewBox="0 0 992.68 850.21">
  <defs>
    <style>
      .cls-1 {
        fill: #f4ea92;
        stroke-width: 0px;
      }
    </style>
  </defs>
  <g id="Layer_2-2" data-name="Layer 2">
    <g id="Layer_3" data-name="Layer 3">
      <path class="cls-1" d="m335.55,414.88v-244.72c-55.64,217.77-175.12,227.41-236.56,0v464.47c-54.67,0-98.99-44.32-98.99-98.99V95.76c0-21.31,6.41-40.83,22.75-54.72,135.75-115.41,148.38,58.13,194.52,141.74,44.92-76.13,79.97-265.82,194.52-141.75,14.55,15.76,22.75,33.42,22.75,54.73v319.12h-98.99Z"/>
      <path class="cls-1" d="m803.15,413.92h-342.82V17.33h250.86c28.33,42.24-1.94,98.99-52.8,98.99h-98.46v198.6h115.42c60.18,0,112.75,40.72,127.78,98.99m-150.98-148.79h-72.55v-98.99h19.76c50.86,0,81.13,56.75,52.8,98.99"/>
      <path class="cls-1" d="m518.05,755.94c-22.55,0-45.1-12.08-67.64-36.28-17.22-18.44-35.26-44.27-54.11-77.47-13.12-22.95-26.03-46.12-38.74-69.48-13.12,22.96-26.24,45.92-39.35,68.87-19.68,34.84-37.51,60.67-53.49,77.47-22.96,24.6-45.71,36.89-68.25,36.89-20.91,0-39.04-7.68-54.42-23.06-15.37-15.37-23.06-33.51-23.06-54.42v-319.11c55.01,0,99.61,44.6,99.61,99.61v145.11c18.03-31.56,36.28-63.33,54.72-95.3,28.28-42.62,56.36-63.94,84.24-63.94,32.37,0,65.58,29.92,99.61,89.77,12.7,23.36,25.61,46.53,38.74,69.48v-154.3h99.61v228.69c0,21.32-7.59,39.56-22.75,54.72-15.17,15.17-33.41,22.75-54.72,22.75"/>
      <path class="cls-1" d="m910.29,850.21h-279.76v-277.92h98.99v178.93h148.8l-129.12-198.6h-118.67v-98.99h132.81c27.87,0,49.59,12.3,65.17,36.89,18.45,26.65,37.09,53.09,55.95,79.32,29.1,41.41,53.08,78.3,71.94,110.68,24.18,41.41,36.28,70.51,36.28,87.31,0,22.14-8.2,41.41-24.59,57.8-16.4,16.4-35.66,24.59-57.8,24.59"/>
    </g>
  </g>
</svg>